<svg xmlns="http://www.w3.org/2000/svg" xmlns:xlink="http://www.w3.org/1999/xlink" version="1" width="96" height="96"><defs><linearGradient id="e"><stop offset="0" stop-color="#167fff"/><stop offset="1" stop-color="#0063db"/></linearGradient><linearGradient id="d"><stop offset="0" stop-color="#ff41a3"/><stop offset="1" stop-color="#ff0084"/></linearGradient><linearGradient x1="45.448" y1="92.54" x2="45.448" y2="7.017" id="f" gradientUnits="userSpaceOnUse" gradientTransform="scale(1.00587 .99417)"><stop offset="0"/><stop offset="1" stop-opacity=".588"/></linearGradient><linearGradient id="a"><stop offset="0" stop-color="#fff"/><stop offset="1" stop-color="#fff" stop-opacity="0"/></linearGradient><linearGradient id="b"><stop offset="0" stop-color="#e1e1e1"/><stop offset="1" stop-color="#f5f5f5"/></linearGradient><filter color-interpolation-filters="sRGB" id="g"><feGaussianBlur stdDeviation="1.71"/></filter><linearGradient x1="36.357" y1="6" x2="36.357" y2="63.893" id="n" xlink:href="#a" gradientUnits="userSpaceOnUse"/><filter x="-.192" y="-.192" width="1.384" height="1.384" color-interpolation-filters="sRGB" id="r"><feGaussianBlur stdDeviation="5.28"/></filter><linearGradient x1="48" y1="20.221" x2="48" y2="138.661" id="q" xlink:href="#a" gradientUnits="userSpaceOnUse"/><radialGradient cx="48" cy="90.172" r="42" fx="48" fy="90.172" id="o" xlink:href="#a" gradientUnits="userSpaceOnUse" gradientTransform="matrix(1.1573 0 0 .9959 -7.55 .197)"/><clipPath id="p"><rect width="84" height="84" rx="6" ry="6" x="6" y="6" fill="#fff"/></clipPath><linearGradient x1="48" y1="90" x2="48" y2="5.988" id="m" xlink:href="#b" gradientUnits="userSpaceOnUse"/><linearGradient x1="45.448" y1="92.54" x2="45.448" y2="7.017" id="c" gradientUnits="userSpaceOnUse" gradientTransform="matrix(1.00587 0 0 .99417 100 0)"><stop offset="0"/><stop offset="1" stop-opacity=".588"/></linearGradient><linearGradient x1="32.251" y1="6.132" x2="32.251" y2="90.239" id="i" xlink:href="#c" gradientUnits="userSpaceOnUse" gradientTransform="matrix(1.0238 0 0 1.0119 -1.143 -98.07)"/><linearGradient x1="32.251" y1="6.132" x2="32.251" y2="90.239" id="j" xlink:href="#c" gradientUnits="userSpaceOnUse" gradientTransform="matrix(1.0238 0 0 1.0119 -1.143 -98.07)"/><linearGradient x1="32.251" y1="6.132" x2="32.251" y2="90.239" id="k" xlink:href="#c" gradientUnits="userSpaceOnUse" gradientTransform="matrix(1.0238 0 0 1.0119 -1.143 -98.07)"/><linearGradient x1="32.251" y1="6.132" x2="32.251" y2="90.239" id="l" xlink:href="#c" gradientUnits="userSpaceOnUse" gradientTransform="translate(0 -97)"/><linearGradient x1="32.251" y1="6.132" x2="32.251" y2="90.239" id="h" xlink:href="#c" gradientUnits="userSpaceOnUse" gradientTransform="matrix(1.0238 0 0 1.0119 -1.143 -98.07)"/><linearGradient x1="16" y1="40" x2="48" y2="40" id="t" xlink:href="#d" gradientUnits="userSpaceOnUse"/><linearGradient x1="16" y1="40" x2="48" y2="40" id="s" xlink:href="#e" gradientUnits="userSpaceOnUse"/></defs><g transform="scale(1 -1)"><path d="M12-95.03C6.49-95.03 1.97-90.51 1.97-85v71C1.97-8.49 6.49-3.97 12-3.97h72c5.51 0 10.03-4.52 10.03-10.03v-71c0-5.51-4.52-10.03-10.03-10.03H12z" opacity=".08" fill="url(#h)"/><path d="M12-94.03c-4.972 0-9.03 4.058-9.03 9.03v71c0 4.972 4.058 9.03 9.03 9.03h72c4.972 0 9.03-4.058 9.03-9.03v-71c0-4.972-4.058-9.03-9.03-9.03H12z" opacity=".1" fill="url(#i)"/><path d="M12-93c-4.41 0-8 3.59-8 8v71c0 4.41 3.59 8 8 8h72c4.41 0 8-3.59 8-8v-71c0-4.41-3.59-8-8-8H12z" opacity=".2" fill="url(#j)"/><rect width="86" height="85" rx="7" ry="7" x="5" y="-92" opacity=".3" fill="url(#k)"/><rect width="84" height="84" rx="6" ry="6" x="6" y="-91" opacity=".45" fill="url(#l)"/></g><rect width="84" height="84" rx="6" ry="6" x="6" y="6" fill="url(#m)"/><path d="M12 6c-3.324 0-6 2.676-6 6v72c0 .335.04.65.094.97.048.294.097.596.187.874l.032.094c.1.287.235.547.375.812.145.274.316.536.5.78.185.247.374.475.594.69.44.427.944.813 1.5 1.093.28.14.575.246.876.343-.256-.1-.486-.236-.72-.375-.006-.003-.022.006-.03 0-.032-.018-.062-.04-.094-.06-.12-.078-.23-.165-.343-.25-.107-.082-.215-.162-.314-.25-.178-.163-.347-.347-.5-.532-.107-.13-.218-.266-.312-.407-.025-.037-.04-.085-.063-.124-.064-.103-.13-.204-.186-.312-.1-.195-.206-.416-.282-.625-.007-.023-.023-.042-.03-.064-.033-.092-.037-.187-.063-.28-.032-.108-.072-.204-.095-.314C7.052 85.722 7 85.365 7 85V13c0-2.782 2.218-5 5-5h72c2.782 0 5 2.218 5 5v72c0 .364-.052.72-.125 1.063-.044.206-.088.397-.156.593-.01.022-.025.04-.032.063-.063.172-.14.366-.22.53-.04.083-.078.17-.124.25-.055.097-.127.188-.188.28-.094.142-.205.277-.312.407-.143.175-.303.347-.47.5l-.03.032c-.14.124-.285.233-.438.343-.102.073-.204.153-.312.218-.008.006-.024-.003-.03 0-.234.14-.464.276-.72.376.3-.097.596-.204.875-.344.556-.28 1.06-.665 1.5-1.093.22-.215.408-.443.593-.69.184-.244.355-.506.5-.78.14-.265.276-.525.374-.813l.032-.093c.09-.278.138-.58.186-.875.053-.32.094-.635.094-.97V12c0-3.324-2.676-6-6-6H12z" opacity=".5" fill="url(#n)"/><path d="M12 90c-3.324 0-6-2.676-6-6V12c0-.335.04-.65.094-.97.048-.294.097-.596.187-.874l.032-.094c.1-.287.235-.547.375-.812.145-.274.316-.536.5-.78.185-.247.374-.475.594-.69.44-.427.944-.813 1.5-1.093.28-.14.575-.246.876-.343-.256.1-.486.236-.72.375-.006.003-.022-.006-.03 0-.032.018-.062.04-.094.06-.12.078-.23.165-.343.25-.107.082-.215.162-.314.25-.178.163-.347.347-.5.532-.107.13-.218.266-.312.407-.025.037-.04.085-.063.124-.064.103-.13.204-.186.312-.1.195-.206.416-.282.625-.007.023-.023.042-.03.064-.033.092-.037.187-.063.28-.032.108-.072.204-.095.313C7.052 10.28 7 10.637 7 11v72c0 2.782 2.218 5 5 5h72c2.782 0 5-2.218 5-5V11c0-.364-.052-.72-.125-1.063-.044-.206-.088-.397-.156-.593-.01-.022-.025-.04-.032-.063-.063-.172-.14-.366-.22-.53-.04-.083-.078-.17-.124-.25-.055-.097-.127-.188-.188-.28-.094-.142-.205-.277-.312-.408-.143-.174-.303-.346-.47-.5l-.03-.03c-.14-.126-.285-.235-.438-.345-.102-.073-.204-.153-.312-.218-.008-.006-.024.003-.03 0-.234-.14-.464-.276-.72-.376.3.097.596.204.875.343.556.28 1.06.666 1.5 1.094.22.215.408.443.593.69.184.244.355.506.5.78.14.265.276.525.374.813l.032.093c.09.278.138.58.186.875.053.32.094.635.094.97v72c0 3.324-2.676 6-6 6H12z" opacity=".2" fill="url(#o)"/><g><rect width="66" height="66" rx="12" ry="12" x="15" y="15" clip-path="url(#p)" opacity=".1" fill="url(#q)" stroke="#fff" stroke-width=".5" stroke-linecap="round" filter="url(#r)"/></g><g><path d="M17.986 67.983H15V64.3h3.054v-.738c0-4.043 1.647-5.452 4.896-5.452.88 0 1.854.157 2.373.26l-.248 3.236c-.338-.13-.974-.21-1.583-.21-1.038 0-1.444.836-1.444 2.166v.74h3.185v3.682h-3.185v10.003h-4.062V67.983zM28.062 57.925h4.092v20.06h-4.092zM35.994 58.136h4.092v3.805h-4.092zM35.994 64.235h3.993v13.752h-3.993zM53.005 68.38c-.757-.516-1.515-.75-2.502-.75-1.79 0-3.168 1.396-3.168 3.72 0 2.143 1.607 3.538 3.398 3.538.94 0 1.882-.232 2.57-.646l.092 3.46c-1.033.388-2.272.595-3.374.595-3.947 0-6.954-2.583-6.954-7.024 0-4.468 3.007-7.05 6.955-7.05 1.24 0 2.342.232 3.284.748l-.3 3.41zM69.74 64.136l-5.075 6.568 5.462 7.283H64.79l-4.415-6.663h-.05v6.663h-4.06V58.123h4.06v12.065h.05l4.57-6.052h4.794z" fill="#0063db"/><path d="M80.884 67.855c-.478-.155-.956-.155-1.458-.155-2.007 0-3.13 1.575-3.13 4.21v6.077h-4.3v-13.85h3.918v2.478h.047c.742-1.704 1.817-2.79 3.68-2.79.503 0 1.028.08 1.46.156l-.216 3.875z" fill="#ff0084"/><path d="M48 40a16 16 0 1 1-32 0 16 16 0 1 1 32 0z" transform="matrix(0 .9375 -.9375 0 68.5 4)" color="#000" fill="url(#s)" overflow="visible" enable-background="accumulate"/><path d="M48 40a16 16 0 1 1-32 0 16 16 0 1 1 32 0z" transform="matrix(0 .9375 -.9375 0 102.5 4)" color="#000" fill="url(#t)" overflow="visible" enable-background="accumulate"/><path d="M31 19c-8.284 0-15 6.716-15 15 0 8.284 6.716 15 15 15 8.284 0 15-6.716 15-15 0-8.284-6.716-15-15-15zm0 2c7.204 0 13 5.796 13 13s-5.796 13-13 13-13-5.796-13-13 5.796-13 13-13z" opacity=".08" color="#000" overflow="visible" enable-background="accumulate"/><path d="M31 19c-8.284 0-15 6.716-15 15 0 8.284 6.716 15 15 15 8.284 0 15-6.716 15-15 0-8.284-6.716-15-15-15zm0 .875c7.808 0 14.125 6.317 14.125 14.125S38.808 48.125 31 48.125 16.875 41.808 16.875 34 23.192 19.875 31 19.875z" opacity=".15" color="#000" overflow="visible" enable-background="accumulate"/><path d="M16.03 34.5c-.004.168-.03.33-.03.5 0 8.284 6.716 15 15 15 8.284 0 15-6.716 15-15 0-.17-.026-.332-.03-.5C45.7 42.55 39.114 49 31 49s-14.702-6.45-14.97-14.5zM50.03 34.5c-.004.168-.03.33-.03.5 0 8.284 6.716 15 15 15 8.284 0 15-6.716 15-15 0-.17-.026-.332-.03-.5C79.7 42.55 73.114 49 65 49s-14.702-6.45-14.97-14.5z" color="#000" fill="#fff" overflow="visible" enable-background="accumulate"/><path d="M65 19c-8.284 0-15 6.716-15 15 0 8.284 6.716 15 15 15 8.284 0 15-6.716 15-15 0-8.284-6.716-15-15-15zm0 2c7.204 0 13 5.796 13 13s-5.796 13-13 13-13-5.796-13-13 5.796-13 13-13z" opacity=".08" color="#000" overflow="visible" enable-background="accumulate"/><path d="M65 19c-8.284 0-15 6.716-15 15 0 8.284 6.716 15 15 15 8.284 0 15-6.716 15-15 0-8.284-6.716-15-15-15zm0 .875c7.808 0 14.125 6.317 14.125 14.125S72.808 48.125 65 48.125 50.875 41.808 50.875 34 57.192 19.875 65 19.875z" opacity=".15" color="#000" overflow="visible" enable-background="accumulate"/><path d="M31 19c-8.284 0-15 6.716-15 15 0 .17.026.332.03.5C16.3 26.45 22.886 20 31 20s14.702 6.45 14.97 14.5c.004-.168.03-.33.03-.5 0-8.284-6.716-15-15-15zM65 19c-8.284 0-15 6.716-15 15 0 .17.026.332.03.5C50.3 26.45 56.886 20 65 20s14.702 6.45 14.97 14.5c.004-.168.03-.33.03-.5 0-8.284-6.716-15-15-15z" opacity=".3" color="#000" overflow="visible" enable-background="accumulate"/></g></svg>